<?xml version="1.0" encoding="UTF-8" standalone="no"?>
<svg width="260px" height="260px" viewBox="0 0 260 260" version="1.1" xmlns="http://www.w3.org/2000/svg" xmlns:xlink="http://www.w3.org/1999/xlink">
    <!-- Generator: Sketch 3.8.3 (29802) - http://www.bohemiancoding.com/sketch -->
    <title>Carfilm</title>
    <desc>Created with Sketch.</desc>
    <defs>
        <radialGradient cx="36.1014874%" cy="59.9760184%" fx="36.1014874%" fy="59.9760184%" r="61.7697479%" id="radialGradient-1">
            <stop stop-color="#F1EAE5" offset="0%"></stop>
            <stop stop-color="#ECE9E7" offset="13.2647902%"></stop>
            <stop stop-color="#C5C5C5" offset="100%"></stop>
        </radialGradient>
        <linearGradient x1="9.36312013%" y1="57.3213407%" x2="58.8430302%" y2="12.3226376%" id="linearGradient-2">
            <stop stop-color="#E5E5E5" offset="0%"></stop>
            <stop stop-color="#B0B0B0" offset="100%"></stop>
        </linearGradient>
        <radialGradient cx="24.0515221%" cy="20.8666881%" fx="24.0515221%" fy="20.8666881%" r="96.1510518%" id="radialGradient-3">
            <stop stop-color="#C6C2C2" offset="0%"></stop>
            <stop stop-color="#A8A3A3" offset="71.5805474%"></stop>
            <stop stop-color="#9C9999" offset="100%"></stop>
        </radialGradient>
        <path d="M138.937494,146.047868 C146.74345,148.142746 153.560033,145.714016 156.899828,141.439273 C162.752675,133.94797 155.950629,117.913482 141.73544,106.807359 C127.520252,95.7012372 110.988334,95.0600987 105.135487,102.551402 C99.2826395,110.042705 105.851046,125.911653 120.066235,137.017775 C126.169847,141.78644 133.063848,144.471562 138.937494,146.047868 Z" id="path-4"></path>
        <filter x="-50%" y="-50%" width="200%" height="200%" filterUnits="objectBoundingBox" id="filter-5">
            <feGaussianBlur stdDeviation="1" in="SourceAlpha" result="shadowBlurInner1"></feGaussianBlur>
            <feOffset dx="1" dy="1" in="shadowBlurInner1" result="shadowOffsetInner1"></feOffset>
            <feComposite in="shadowOffsetInner1" in2="SourceAlpha" operator="arithmetic" k2="-1" k3="1" result="shadowInnerInner1"></feComposite>
            <feColorMatrix values="0 0 0 0 0.695578231   0 0 0 0 0.695578231   0 0 0 0 0.695578231  0 0 0 0.146569293 0" type="matrix" in="shadowInnerInner1"></feColorMatrix>
        </filter>
        <mask id="mask-6" maskContentUnits="userSpaceOnUse" maskUnits="objectBoundingBox" x="0" y="0" width="56" height="49.2289067" fill="white">
            <use xlink:href="#path-4"></use>
        </mask>
        <radialGradient cx="74.4738167%" cy="34.3916283%" fx="74.4738167%" fy="34.3916283%" r="80.1748842%" id="radialGradient-7">
            <stop stop-color="#D9E8EE" offset="0%"></stop>
            <stop stop-color="#C3E9EB" offset="13.9968004%"></stop>
            <stop stop-color="#4DA6CE" offset="100%"></stop>
        </radialGradient>
    </defs>
    <g id="Composition-Images" stroke="none" stroke-width="1" fill="none" fill-rule="evenodd">
        <g id="Carfilm">
            <g id="Slice" transform="translate(130.000000, 130.000000) rotate(-180.000000) translate(-130.000000, -130.000000) translate(19.500000, 59.000000)">
                <polygon id="Polygon-1-Copy-2" fill="url(#radialGradient-1)" points="220.049901 82.9075183 220.049901 97.1227497 143.100648 141.549421 0.279672867 58.9091313 0.279672867 44.6938999 77.2289256 0.267228101"></polygon>
                <polygon id="Polygon-1-Copy-3" fill="url(#linearGradient-2)" points="77.2289171 14.4888467 220.026489 97.1147012 220.026489 83.0330838 77.2289171 0.267228012"></polygon>
                <polygon id="Polygon-1" fill="#FFFFFF" opacity="0.2" points="143.100648 141.482614 0.171874998 58.8484678 77.2289252 14.3488455 220.034366 97.1452856"></polygon>
            </g>
            <g id="Oval-1-Copy-9" transform="translate(131.000000, 122.198234) scale(-1, 1) rotate(-217.000000) translate(-131.000000, -122.198234) ">
                <use fill="url(#radialGradient-3)" fill-rule="evenodd" xlink:href="#path-4"></use>
                <use fill="black" fill-opacity="1" filter="url(#filter-5)" xlink:href="#path-4"></use>
                <use stroke="#CCCACA" mask="url(#mask-6)" stroke-width="0.2" xlink:href="#path-4"></use>
            </g>
            <path d="M130.060547,140.250977 C146.629089,140.250977 161,133.113464 161,116.544922 C161,99.9763794 147.568542,86.5449219 131,86.5449219 C114.431458,86.5449219 101,99.9763794 101,116.544922 C101,133.113464 113.492004,140.250977 130.060547,140.250977 Z" id="Sphere-1" fill="url(#radialGradient-7)"></path>
        </g>
    </g>
</svg>