<?xml version="1.0" encoding="UTF-8" standalone="no"?>
<svg width="260px" height="260px" viewBox="0 0 260 260" version="1.1" xmlns="http://www.w3.org/2000/svg" xmlns:xlink="http://www.w3.org/1999/xlink">
    <!-- Generator: Sketch 3.8.1 (29687) - http://www.bohemiancoding.com/sketch -->
    <title>Sph4</title>
    <desc>Created with Sketch.</desc>
    <defs>
        <radialGradient cx="75.4468294%" cy="16.2270353%" fx="75.4468294%" fy="16.2270353%" r="79.685935%" id="radialGradient-1">
            <stop stop-color="#E6E1DF" offset="0%"></stop>
            <stop stop-color="#FDF9F6" offset="0%"></stop>
            <stop stop-color="#EAE5E2" offset="46.9009088%"></stop>
            <stop stop-color="#CDCAC9" offset="83.6276307%"></stop>
            <stop stop-color="#BBB9B8" offset="100%"></stop>
        </radialGradient>
        <linearGradient x1="26.1372541%" y1="100%" x2="50%" y2="63.4691922%" id="linearGradient-2">
            <stop stop-color="#DDD5D2" offset="0%"></stop>
            <stop stop-color="#CEC7C3" offset="100%"></stop>
        </linearGradient>
        <linearGradient x1="97.4500299%" y1="0%" x2="97.4500299%" y2="94.2831526%" id="linearGradient-3">
            <stop stop-color="#F3EEEC" offset="0%"></stop>
            <stop stop-color="#ECE8E6" offset="100%"></stop>
        </linearGradient>
        <linearGradient x1="50%" y1="0%" x2="50%" y2="100%" id="linearGradient-4">
            <stop stop-color="#FFFFFF" offset="0%"></stop>
            <stop stop-color="#F4F4F4" offset="100%"></stop>
        </linearGradient>
        <radialGradient cx="68.0053144%" cy="31.4290514%" fx="68.0053144%" fy="31.4290514%" r="86.3202562%" id="radialGradient-5">
            <stop stop-color="#FFCDAE" offset="0%"></stop>
            <stop stop-color="#FF9662" offset="100%"></stop>
        </radialGradient>
        <path d="M119.990069,162.546929 C100.210093,162.546929 81.6910459,160.387457 65.8260442,156.625759 C65.8198943,89.4994025 100.967567,31.8756492 119.990069,21.6000004 C120.044009,21.6124588 206.41649,41.5823701 212.189995,141.278846 C193.789461,154.005845 159.383805,162.546929 119.990069,162.546929 Z" id="path-6"></path>
        <filter x="-50%" y="-50%" width="200%" height="200%" filterUnits="objectBoundingBox" id="filter-7">
            <feGaussianBlur stdDeviation="2.5" in="SourceAlpha" result="shadowBlurInner1"></feGaussianBlur>
            <feOffset dx="2" dy="2" in="shadowBlurInner1" result="shadowOffsetInner1"></feOffset>
            <feComposite in="shadowOffsetInner1" in2="SourceAlpha" operator="arithmetic" k2="-1" k3="1" result="shadowInnerInner1"></feComposite>
            <feColorMatrix values="0 0 0 0 0   0 0 0 0 0   0 0 0 0 0  0 0 0 0.101307745 0" type="matrix" in="shadowInnerInner1"></feColorMatrix>
        </filter>
        <linearGradient x1="27.9150262%" y1="103.942964%" x2="38.32021%" y2="86.1331961%" id="linearGradient-8">
            <stop stop-color="#FFCDAE" offset="0%"></stop>
            <stop stop-color="#FF8539" offset="100%"></stop>
        </linearGradient>
        <linearGradient x1="50%" y1="0%" x2="50%" y2="103.168221%" id="linearGradient-9">
            <stop stop-color="#FFE8D9" offset="0%"></stop>
            <stop stop-color="#FFB88B" offset="100%"></stop>
        </linearGradient>
        <radialGradient cx="75.2039632%" cy="25.5657423%" fx="75.2039632%" fy="25.5657423%" r="79.0915702%" id="radialGradient-10">
            <stop stop-color="#FFFAF6" offset="0%"></stop>
            <stop stop-color="#FBCFB6" offset="100%"></stop>
        </radialGradient>
        <linearGradient x1="33.9506914%" y1="100%" x2="66.7490878%" y2="45.6367453%" id="linearGradient-11">
            <stop stop-color="#FCE5D8" offset="0%"></stop>
            <stop stop-color="#FB8442" offset="100%"></stop>
        </linearGradient>
        <linearGradient x1="50%" y1="0%" x2="50%" y2="100%" id="linearGradient-12">
            <stop stop-color="#FCE5D8" offset="0%"></stop>
            <stop stop-color="#FB8442" offset="100%"></stop>
        </linearGradient>
        <radialGradient cx="75.4246405%" cy="27.2636889%" fx="75.4246405%" fy="27.2636889%" r="69.9046353%" id="radialGradient-13">
            <stop stop-color="#FFA686" offset="0%"></stop>
            <stop stop-color="#FF6F39" offset="100%"></stop>
        </radialGradient>
        <path d="M120.015193,140.509995 C110.479339,140.509995 101.551375,139.468921 93.9029156,137.65542 C93.8999507,105.29405 110.844515,77.5138502 120.015193,72.5599976 C120.041197,72.5660037 161.681054,82.1934247 164.464439,130.25673 C155.593609,136.392369 139.006769,140.509995 120.015193,140.509995 Z" id="path-14"></path>
        <filter x="-50%" y="-50%" width="200%" height="200%" filterUnits="objectBoundingBox" id="filter-15">
            <feGaussianBlur stdDeviation="2.5" in="SourceAlpha" result="shadowBlurInner1"></feGaussianBlur>
            <feOffset dx="2" dy="2" in="shadowBlurInner1" result="shadowOffsetInner1"></feOffset>
            <feComposite in="shadowOffsetInner1" in2="SourceAlpha" operator="arithmetic" k2="-1" k3="1" result="shadowInnerInner1"></feComposite>
            <feColorMatrix values="0 0 0 0 0   0 0 0 0 0   0 0 0 0 0  0 0 0 0.101307745 0" type="matrix" in="shadowInnerInner1"></feColorMatrix>
        </filter>
    </defs>
    <g id="Composition-Images" stroke="none" stroke-width="1" fill="none" fill-rule="evenodd">
        <g id="Sph4">
            <g id="Nano-/-Sphere-4" transform="translate(10.000000, 10.000000)">
                <circle id="Sphere-1" fill="url(#radialGradient-1)" fill-rule="evenodd" cx="120" cy="120" r="120"></circle>
                <g id="Inner-1" stroke-width="1" fill-rule="evenodd" transform="translate(58.000000, 9.000000)">
                    <path d="M62,159 C39.6865217,159 18.7954777,156.563934 0.898420281,152.320422 C0.891482695,76.5962413 40.5410156,11.5917969 62,0 C62.0608481,0.0140541374 159.496278,22.5417951 166.009277,135.007812 C145.251926,149.364938 106.43945,159 62,159 Z" id="Oval-10-Copy" fill="url(#linearGradient-2)"></path>
                    <path d="M61.9999996,0.00262451171 C61.9999996,1.06762697 61.9999995,63.9489043 61.9999996,110.999996 L0.895080566,152.327148 C0.894961698,76.6052745 40.5410153,11.5944214 61.9999996,0.00262451171 Z" id="Path-51-Copy-2" fill="url(#linearGradient-3)"></path>
                    <path d="M62,0.00451660197 C62,0.00451660197 159.49809,22.4895897 166.013123,134.990723 L62,110.999996 L62,0.00451660197 Z" id="Path-53-Copy" fill="url(#linearGradient-4)" opacity="0.400000006"></path>
                </g>
                <g id="Sphere-2">
                    <use fill="url(#radialGradient-5)" fill-rule="evenodd" xlink:href="#path-6"></use>
                    <use fill="black" fill-opacity="1" filter="url(#filter-7)" xlink:href="#path-6"></use>
                </g>
                <g id="Inner-2" stroke-width="1" fill-rule="evenodd" transform="translate(75.000000, 40.000000)">
                    <path d="M45.001339,114.575001 C28.9116109,114.575001 13.847567,112.822642 0.942416819,109.770116 C0.937414287,55.2987121 29.5277665,8.53843955 45.001339,0.200000763 C45.0452152,0.210110461 115.303628,16.4152071 120,97.3164697 C105.032359,107.644119 77.0455889,114.575001 45.001339,114.575001 Z" id="Oval-10-Copy" fill="url(#linearGradient-8)" opacity="0.300000012"></path>
                    <path d="M45,0.188110352 C45,0.955008903 44.9999999,46.1471311 45,80.0281934 L0.9375,109.787498 C0.937414285,55.2608679 29.5260167,8.53525753 45,0.188110352 Z" id="Path-51-Copy-2" fill="url(#linearGradient-9)" opacity="0.352040578"></path>
                    <path d="M45,0.193664551 C45,0.193664551 115.355713,16.5014648 120,97.3025017 L45,80 L45,0.193664551 Z" id="Path-53-Copy" fill="#FFFFFF" opacity="0.05"></path>
                </g>
                <path d="M119.991156,150.928952 C105.616651,150.928952 92.1584896,149.35962 80.6290756,146.625919 C80.6246063,97.8438535 106.167123,55.9675195 119.991156,48.5 C120.030355,48.5090538 182.798964,63.0215877 186.994686,135.473011 C173.62265,144.721975 148.619372,150.928952 119.991156,150.928952 Z" id="Sphere-3" fill="url(#radialGradient-10)" fill-rule="evenodd"></path>
                <g id="Inner-3" stroke-width="1" fill-rule="evenodd" transform="translate(89.279999, 64.500000)">
                    <path d="M30.750915,79.1362534 C19.7562675,79.1362534 9.46250411,77.9388081 0.643984826,75.8529154 C0.64056643,38.6307894 20.1773071,6.67793653 30.750915,0.980003357 C30.780897,0.98691165 78.7908126,12.0603944 82,67.3429238 C71.772112,74.4001509 52.6478191,79.1362534 30.750915,79.1362534 Z" id="Oval-10-Copy" fill="url(#linearGradient-11)" opacity="0.200000003"></path>
                    <path d="M30.7406254,1 C30.7406254,1.52332632 30.7406253,32.4222478 30.7406254,55.5424526 L0.640625,75.8499985 C0.640566446,38.6413993 20.170029,6.69603604 30.7406254,1 Z" id="Path-51-Copy-2" fill="url(#linearGradient-12)" opacity="0.200000003"></path>
                    <path d="M30.75,1 C30.75,1 78.789872,12.0471291 82,67.3199997 L30.75,55.533129 L30.75,1 Z" id="Path-53-Copy" fill="#FFFFFF" opacity="0.100000001"></path>
                </g>
                <g id="Sphere-4">
                    <use fill="url(#radialGradient-13)" fill-rule="evenodd" xlink:href="#path-14"></use>
                    <use fill="black" fill-opacity="1" filter="url(#filter-15)" xlink:href="#path-14"></use>
                </g>
            </g>
        </g>
    </g>
</svg>